<svg width="357" height="357" viewBox="0 0 357 357" fill="none" xmlns="http://www.w3.org/2000/svg">
<path d="M15 3.70313C15 2.04627 16.3431 0.703125 18 0.703125H69C70.6569 0.703125 72 2.04627 72 3.70312V27.7031C72 29.36 70.6569 30.7031 69 30.7031H18C16.3431 30.7031 15 29.36 15 27.7031V3.70313Z" fill="#1D2F38" fill-opacity="0.8"/>
<path d="M26.068 19.7031V11.1831H26.908V18.9591H31.828V19.7031H26.068ZM32.3921 17.9031C32.3921 17.5111 32.5041 17.1751 32.7281 16.8951C32.9521 16.6071 33.2601 16.3871 33.6521 16.2351C34.0521 16.0751 34.5121 15.9951 35.0321 15.9951C35.3361 15.9951 35.6521 16.0191 35.9801 16.0671C36.3081 16.1151 36.6001 16.1871 36.8561 16.2831V15.7551C36.8561 15.2271 36.7001 14.8071 36.3881 14.4951C36.0761 14.1831 35.6441 14.0271 35.0921 14.0271C34.7561 14.0271 34.4241 14.0911 34.0961 14.2191C33.7761 14.3391 33.4401 14.5191 33.0881 14.7591L32.7761 14.1831C33.1841 13.9031 33.5841 13.6951 33.9761 13.5591C34.3681 13.4151 34.7681 13.3431 35.1761 13.3431C35.9441 13.3431 36.5521 13.5631 37.0001 14.0031C37.4481 14.4431 37.6721 15.0511 37.6721 15.8271V18.7191C37.6721 18.8311 37.6961 18.9151 37.7441 18.9711C37.7921 19.0191 37.8681 19.0471 37.9721 19.0551V19.7031C37.8841 19.7111 37.8081 19.7191 37.7441 19.7271C37.6801 19.7351 37.6321 19.7351 37.6001 19.7271C37.4001 19.7191 37.2481 19.6551 37.1441 19.5351C37.0401 19.4151 36.9841 19.2871 36.9761 19.1511L36.9641 18.6951C36.6841 19.0551 36.3201 19.3351 35.8721 19.5351C35.4241 19.7271 34.9681 19.8231 34.5041 19.8231C34.1041 19.8231 33.7401 19.7391 33.4121 19.5711C33.0921 19.3951 32.8401 19.1631 32.6561 18.8751C32.4801 18.5791 32.3921 18.2551 32.3921 17.9031ZM36.5801 18.3831C36.6681 18.2711 36.7361 18.1631 36.7841 18.0591C36.8321 17.9551 36.8561 17.8631 36.8561 17.7831V16.8711C36.5841 16.7671 36.3001 16.6871 36.0041 16.6311C35.7161 16.5751 35.4241 16.5471 35.1281 16.5471C34.5441 16.5471 34.0721 16.6631 33.7121 16.8951C33.3521 17.1271 33.1721 17.4431 33.1721 17.8431C33.1721 18.0751 33.2321 18.2951 33.3521 18.5031C33.4721 18.7031 33.6481 18.8711 33.8801 19.0071C34.1121 19.1351 34.3841 19.1991 34.6961 19.1991C35.0881 19.1991 35.4521 19.1231 35.7881 18.9711C36.1321 18.8191 36.3961 18.6231 36.5801 18.3831ZM47.1197 13.4511H47.9237L45.2357 19.7031H44.5277L43.2197 16.5951L41.9237 19.7031H41.2157L38.5277 13.4511H39.3197L41.5997 18.8631L42.7517 16.0431L41.6957 13.4631H42.4277L43.2197 15.4911L44.0237 13.4631H44.7437L43.6997 16.0431L44.8517 18.8631L47.1197 13.4511ZM54.2654 19.7031H53.4494V16.2111C53.4494 15.4751 53.3414 14.9391 53.1254 14.6031C52.9094 14.2591 52.5694 14.0871 52.1054 14.0871C51.7854 14.0871 51.4694 14.1671 51.1574 14.3271C50.8454 14.4791 50.5694 14.6911 50.3294 14.9631C50.0974 15.2271 49.9294 15.5311 49.8254 15.8751V19.7031H49.0094V13.4511H49.7534V14.8671C49.9214 14.5631 50.1414 14.2991 50.4134 14.0751C50.6854 13.8431 50.9934 13.6631 51.3374 13.5351C51.6814 13.4071 52.0374 13.3431 52.4054 13.3431C52.7494 13.3431 53.0414 13.4071 53.2814 13.5351C53.5214 13.6631 53.7134 13.8471 53.8574 14.0871C54.0014 14.3191 54.1054 14.6031 54.1694 14.9391C54.2334 15.2671 54.2654 15.6351 54.2654 16.0431V19.7031ZM58.0575 19.8231C57.5455 19.8231 57.0695 19.7391 56.6295 19.5711C56.1895 19.4031 55.8095 19.1471 55.4895 18.8031L55.8255 18.2271C56.1775 18.5551 56.5295 18.7951 56.8815 18.9471C57.2415 19.0911 57.6215 19.1631 58.0215 19.1631C58.5095 19.1631 58.9055 19.0671 59.2095 18.8751C59.5135 18.6751 59.6655 18.3911 59.6655 18.0231C59.6655 17.7751 59.5895 17.5871 59.4375 17.4591C59.2935 17.3231 59.0815 17.2151 58.8015 17.1351C58.5295 17.0471 58.2015 16.9551 57.8175 16.8591C57.3855 16.7391 57.0215 16.6151 56.7255 16.4871C56.4375 16.3511 56.2175 16.1831 56.0655 15.9831C55.9215 15.7751 55.8495 15.5071 55.8495 15.1791C55.8495 14.7711 55.9495 14.4351 56.1495 14.1711C56.3575 13.8991 56.6375 13.6951 56.9895 13.5591C57.3495 13.4151 57.7495 13.3431 58.1895 13.3431C58.6695 13.3431 59.0935 13.4191 59.4615 13.5711C59.8295 13.7231 60.1295 13.9351 60.3615 14.2071L59.9655 14.7591C59.7415 14.5031 59.4735 14.3151 59.1615 14.1951C58.8575 14.0671 58.5175 14.0031 58.1415 14.0031C57.8855 14.0031 57.6415 14.0391 57.4095 14.1111C57.1775 14.1751 56.9855 14.2871 56.8335 14.4471C56.6895 14.5991 56.6175 14.8111 56.6175 15.0831C56.6175 15.3071 56.6735 15.4831 56.7855 15.6111C56.8975 15.7311 57.0655 15.8351 57.2895 15.9231C57.5135 16.0031 57.7895 16.0911 58.1175 16.1871C58.5895 16.3151 59.0015 16.4471 59.3535 16.5831C59.7055 16.7111 59.9775 16.8791 60.1695 17.0871C60.3615 17.2951 60.4575 17.5871 60.4575 17.9631C60.4575 18.5471 60.2375 19.0031 59.7975 19.3311C59.3575 19.6591 58.7775 19.8231 58.0575 19.8231Z" fill="white"/>
</svg>
